<?xml version="1.0" encoding="iso-8859-1"?>
<!-- Generator: Adobe Illustrator 19.0.0, SVG Export Plug-In . SVG Version: 6.00 Build 0)  -->
<svg version="1.1" id="Layer_1" xmlns="http://www.w3.org/2000/svg" xmlns:xlink="http://www.w3.org/1999/xlink" x="0px" y="0px"
	 viewBox="0 0 490.1 490.1" style="enable-background:new 0 0 490.1 490.1;" xml:space="preserve">
<g>
	<g>
		<path d="M256.5,0c-3.3,0-6,2.7-6,6v80.1c0,3.3,2.7,6,6,6c3.3,0,6-2.7,6-6V6C262.5,2.7,259.8,0,256.5,0z"/>
	</g>
</g>
<g>
	<g>
		<path d="M184.9,104.3l-56.6-56.6c-2.3-2.3-6.1-2.3-8.5,0c-2.3,2.3-2.3,6.1,0,8.5l56.7,56.6c1.2,1.2,2.7,1.8,4.2,1.8
			s3.1-0.6,4.2-1.8C187.2,110.5,187.2,106.7,184.9,104.3z"/>
	</g>
</g>
<g>
	<g>
		<path d="M422.8,180h-80c-3.3,0-6,2.7-6,6c0,3.3,2.7,6,6,6h80c3.3,0,6-2.7,6-6C428.8,182.7,426.1,180,422.8,180z"/>
	</g>
</g>
<g>
	<g>
		<path d="M170.1,180h-80c-3.3,0-6,2.7-6,6c0,3.3,2.7,6,6,6h80c3.3,0,6-2.7,6-6C176.1,182.7,173.4,180,170.1,180z"/>
	</g>
</g>
<g>
	<g>
		<path d="M384.5,53.5c-2.3-2.3-6.1-2.3-8.5,0l-56.6,56.6c-2.3,2.3-2.3,6.1,0,8.5c1.2,1.2,2.7,1.8,4.3,1.8c1.5,0,3.1-0.6,4.2-1.8
			L384.5,62C386.8,59.7,386.8,55.9,384.5,53.5z"/>
	</g>
</g>
<g>
	<g>
		<path d="M378.8,257.2h-83.5v-61.1c0-23.3-6.7-40-19.9-49.7c-21-15.4-50.1-6.5-51.3-6.1c-2.5,0.8-4.2,3.1-4.2,5.7v64.9
			c0,43.9-48.9,70.2-67.6,78.6v-1.1c0-5.5-4.4-9.9-9.9-9.9H71.2c-5.5,0-9.9,4.4-9.9,9.9v186.1c0,5.4,4.5,9.9,9.9,9.9h71.1
			c5.5,0,9.9-4.4,9.9-9.9v-1c8.9,10.2,22,16.6,36.5,16.6h158.8c33.3,0,54.5-17.4,58.3-47.7l21.4-135.8c0-0.3,0.1-0.6,0.1-0.9
			C427.3,278.9,405.5,257.2,378.8,257.2z M140.2,472.4H73.3V290.5h66.9V472.4z M393.9,440.6c0,0.1,0,0.1,0,0.2
			c-3.8,30.8-27.3,37.2-46.4,37.2H188.7c-20.1,0-36.5-16.4-36.5-36.5v-139c6.5-2.6,22.1-9.5,37.8-21.1
			c27.4-20.1,41.8-44.5,41.8-70.6v-60.2c7.7-1.5,24.4-3.5,36.5,5.4c9.9,7.3,14.9,20.8,14.9,40v67.1c0,3.3,2.7,6,6,6h89.5
			c20,0,36.3,16.1,36.5,36.1L393.9,440.6z"/>
	</g>
</g>
<g>
</g>
<g>
</g>
<g>
</g>
<g>
</g>
<g>
</g>
<g>
</g>
<g>
</g>
<g>
</g>
<g>
</g>
<g>
</g>
<g>
</g>
<g>
</g>
<g>
</g>
<g>
</g>
<g>
</g>
</svg>
