<?xml version='1.0' encoding='utf-8'?>
<!DOCTYPE svg PUBLIC '-//W3C//DTD SVG 1.1//EN' 'http://www.w3.org/Graphics/SVG/1.1/DTD/svg11.dtd'>
<svg version="1.1" xmlns="http://www.w3.org/2000/svg" viewBox="0 0 512 512" xmlns:xlink="http://www.w3.org/1999/xlink" enable-background="new 0 0 512 512">
  <g>
    <g>
      <path d="m341.5,417.6c-22.9,0-40.7,18.8-40.7,41.7s18.8,41.7 40.7,41.7 40.7-18.8 40.7-41.7-18.8-41.7-40.7-41.7zm0,62.5c-11.5,0-19.8-9.4-19.8-20.9s9.4-20.9 19.8-20.9 19.8,9.4 19.8,20.9-9.4,20.9-19.8,20.9z"/>
      <path d="m119.4,417.6c-22.9,0-40.7,18.8-40.7,41.7s18.8,41.7 40.7,41.7c22.9,0 40.7-18.8 40.7-41.7s-18.8-41.7-40.7-41.7zm0,62.5c-11.5,0-19.8-9.4-19.8-20.9s9.4-20.9 19.8-20.9c11.5,0 19.8,9.4 19.8,20.9-2.84217e-14,11.6-9.3,20.9-19.8,20.9z"/>
      <path d="m439.5,11l-16.2,63.6h-409.2l75.5,223.7c-25.3,3.7-44.2,25.1-44.2,52.6 0,30.2 22.9,54.2 52.1,54.2h283.6v-19.8h-283.6c-17.7,0-31.3-14.6-31.3-33.4 0-18.8 14.6-33.4 31.3-33.4h283.6 1l74-286.7h41.7v-20.8h-58.3zm-73,286.7h-255.4l-67.8-202.3h374.3l-51.1,202.3z"/>
      <rect width="20.9" x="146.5" y="144.4" height="117.8"/>
      <rect width="20.9" x="220.6" y="144.4" height="117.8"/>
      <rect width="20.9" x="294.6" y="144.4" height="117.8"/>
    </g>
  </g>
</svg>
